<?xml version="1.0" encoding="UTF-8"?>
<!DOCTYPE svg PUBLIC "-//W3C//DTD SVG 1.1//EN" "http://www.w3.org/Graphics/SVG/1.1/DTD/svg11.dtd">
<svg xmlns="http://www.w3.org/2000/svg" version="1.1" width="146px" height="54px" style="shape-rendering:geometricPrecision; text-rendering:geometricPrecision; image-rendering:optimizeQuality; fill-rule:evenodd; clip-rule:evenodd" xmlns:xlink="http://www.w3.org/1999/xlink">
<g><path style="opacity:1" fill="#d6f8f2" d="M 76.5,-0.5 C 79.5,-0.5 82.5,-0.5 85.5,-0.5C 85.5,-0.166667 85.5,0.166667 85.5,0.5C 83.1667,0.5 80.8333,0.5 78.5,0.5C 78.5,1.5 78.5,2.5 78.5,3.5C 76.6412,3.46091 75.3079,4.29424 74.5,6C 75.1667,6.33333 75.8333,6.66667 76.5,7C 74.6951,7.97201 73.0284,9.13868 71.5,10.5C 71.1301,7.4985 69.7968,5.16517 67.5,3.5C 70.3448,1.77567 73.3448,0.442336 76.5,-0.5 Z"/></g>
<g><path style="opacity:1" fill="#d7f8f2" d="M 85.5,0.5 C 92.814,1.80864 98.1474,5.80864 101.5,12.5C 100.287,13.5747 98.7866,14.2414 97,14.5C 92.7075,12.4559 91.0409,13.7893 92,18.5C 92.6543,17.3044 93.1543,17.3044 93.5,18.5C 90.9468,20.8705 90.2802,23.5371 91.5,26.5C 88.7237,26.0889 88.057,26.9223 89.5,29C 89.1501,30.2575 88.4835,30.5908 87.5,30C 87.5,28.3333 87.5,26.6667 87.5,25C 85.1311,24.4641 83.1311,23.2974 81.5,21.5C 82.9216,21.4116 84.4216,21.4116 86,21.5C 86.3742,20.5838 86.8742,19.7504 87.5,19C 85.3594,18.4275 83.3594,17.5942 81.5,16.5C 82.7429,13.8937 84.0762,13.8937 85.5,16.5C 86.7678,15.5721 88.1011,15.4054 89.5,16C 88.3044,16.6543 88.3044,17.1543 89.5,17.5C 91.157,14.2545 90.4904,13.2545 87.5,14.5C 85.6892,13.1907 84.0225,11.6907 82.5,10C 82.6448,9.22797 82.9781,8.5613 83.5,8C 82.6919,7.69238 82.0253,7.19238 81.5,6.5C 84.144,6.02136 85.4773,4.02136 85.5,0.5 Z"/></g>
<g><path style="opacity:1" fill="#d8f8f3" d="M 85.5,0.5 C 85.4773,4.02136 84.144,6.02136 81.5,6.5C 82.0253,7.19238 82.6919,7.69238 83.5,8C 82.9781,8.5613 82.6448,9.22797 82.5,10C 84.0225,11.6907 85.6892,13.1907 87.5,14.5C 90.4904,13.2545 91.157,14.2545 89.5,17.5C 88.3044,17.1543 88.3044,16.6543 89.5,16C 88.1011,15.4054 86.7678,15.5721 85.5,16.5C 84.0762,13.8937 82.7429,13.8937 81.5,16.5C 80.7579,20.186 79.2579,20.8527 77,18.5C 76.228,18.6448 75.5613,18.9781 75,19.5C 74.8595,21.2555 75.3595,22.9222 76.5,24.5C 75.0172,26.9458 73.8505,26.6124 73,23.5C 72.935,25.8833 72.1017,26.55 70.5,25.5C 69.6919,25.8076 69.0253,26.3076 68.5,27C 69.7112,27.8928 69.7112,28.7261 68.5,29.5C 67.2836,28.9984 66.1169,28.6651 65,28.5C 64.2274,30.3524 64.7274,31.6857 66.5,32.5C 66.631,33.2389 66.4643,33.9056 66,34.5C 64,34.5 62,34.5 60,34.5C 59.8333,34.1667 59.6667,33.8333 59.5,33.5C 60.376,32.7492 61.376,32.2492 62.5,32C 60.8645,30.566 59.8645,28.7326 59.5,26.5C 60.5294,26.7036 61.5294,26.2036 62.5,25C 61.2986,24.0975 60.4652,22.9308 60,21.5C 59.5638,24.2836 58.0638,25.4502 55.5,25C 56.1667,23.6667 57.1667,22.6667 58.5,22C 55.6928,20.6026 55.1928,18.7693 57,16.5C 57.7175,17.4506 58.5509,17.6172 59.5,17C 58.1667,15.6667 58.1667,14.3333 59.5,13C 58.5842,12.7216 57.9175,12.2216 57.5,11.5C 59.3141,7.02701 62.6474,4.36035 67.5,3.5C 69.7968,5.16517 71.1301,7.4985 71.5,10.5C 73.0284,9.13868 74.6951,7.97201 76.5,7C 75.8333,6.66667 75.1667,6.33333 74.5,6C 75.3079,4.29424 76.6412,3.46091 78.5,3.5C 78.5,2.5 78.5,1.5 78.5,0.5C 80.8333,0.5 83.1667,0.5 85.5,0.5 Z"/></g>
<g><path style="opacity:1" fill="#d7f7f4" d="M 27.5,14.5 C 26.9924,16.2327 26.159,16.566 25,15.5C 24.2506,16.635 24.4173,17.635 25.5,18.5C 28.1449,19.1152 30.4783,19.1152 32.5,18.5C 31.91,19.7989 30.91,20.6322 29.5,21C 30.3363,22.2433 30.003,23.4099 28.5,24.5C 27.2888,23.7261 27.2888,22.8928 28.5,22C 25.6865,21.786 25.0198,22.9527 26.5,25.5C 26.0576,26.7387 25.3909,27.7387 24.5,28.5C 19.9321,29.6504 18.9321,31.9838 21.5,35.5C 21.1667,36.5 20.5,37.1667 19.5,37.5C 17.9157,36.6182 16.249,35.7848 14.5,35C 15.1667,34.3333 15.8333,33.6667 16.5,33C 15.2624,33.0773 14.2624,32.9106 13.5,32.5C 14.0253,31.8076 14.6919,31.3076 15.5,31C 13.7289,28.8865 12.2289,29.0532 11,31.5C 10.8621,29.5676 11.3621,27.7343 12.5,26C 11.8333,25.3333 11.1667,24.6667 10.5,24C 12.0609,23.6824 13.2276,22.8491 14,21.5C 15.016,22.6341 15.6827,22.3008 16,20.5C 16.763,23.0635 17.263,23.0635 17.5,20.5C 17.2528,19.2867 16.5862,18.62 15.5,18.5C 18.9555,15.7925 22.9555,14.4591 27.5,14.5 Z"/></g>
<g><path style="opacity:1" fill="#d7f7f4" d="M 45.5,27.5 C 41.551,27.6932 41.551,28.1932 45.5,29C 44.2068,29.49 42.8734,29.6567 41.5,29.5C 41.4729,31.1993 40.8062,32.5326 39.5,33.5C 37.9897,34.8361 36.3231,36.0027 34.5,37C 34.8333,37.3333 35.1667,37.6667 35.5,38C 34.1667,38.3333 32.8333,38.6667 31.5,39C 31.8333,39.3333 32.1667,39.6667 32.5,40C 29.3116,42.1007 26.645,41.6007 24.5,38.5C 24.5,37.5 24.5,36.5 24.5,35.5C 23.5,35.5 22.5,35.5 21.5,35.5C 18.9321,31.9838 19.9321,29.6504 24.5,28.5C 23.4991,29.7887 23.6658,31.1221 25,32.5C 25.3076,31.6919 25.8076,31.0253 26.5,30.5C 27.8333,30.8333 29.1667,31.1667 30.5,31.5C 30.8333,30.8333 31.1667,30.1667 31.5,29.5C 35.1077,30.4512 35.1077,29.6179 31.5,27C 32.4491,26.3828 33.2825,26.5494 34,27.5C 35.1667,25.6667 36.3333,23.8333 37.5,22C 38.1667,21.3333 38.8333,21.3333 39.5,22C 38.4464,23.3876 38.2797,24.8876 39,26.5C 39.8333,25 41,23.8333 42.5,23C 41.2283,21.6932 40.2283,20.1932 39.5,18.5C 38.2299,19.5622 37.0633,20.5622 36,21.5C 34.9355,18.8482 33.1022,17.0148 30.5,16C 31.4162,15.6258 32.2496,15.1258 33,14.5C 37.085,16.1333 40.9183,17.6333 44.5,19C 44.1667,21.3333 43.8333,23.6667 43.5,26C 44.4158,26.2784 45.0825,26.7784 45.5,27.5 Z"/></g>
<g><path style="opacity:1" fill="#d7f7f2" d="M 50.5,19.5 C 48.8333,19.5 47.1667,19.5 45.5,19.5C 45.4125,22.5983 45.9125,22.9316 47,20.5C 47.6449,21.646 48.4783,22.646 49.5,23.5C 48.1369,24.8928 47.3036,26.5595 47,28.5C 46.6174,27.944 46.1174,27.6107 45.5,27.5C 45.0825,26.7784 44.4158,26.2784 43.5,26C 43.8333,23.6667 44.1667,21.3333 44.5,19C 40.9183,17.6333 37.085,16.1333 33,14.5C 32.2496,15.1258 31.4162,15.6258 30.5,16C 33.1022,17.0148 34.9355,18.8482 36,21.5C 37.0633,20.5622 38.2299,19.5622 39.5,18.5C 40.2283,20.1932 41.2283,21.6932 42.5,23C 41,23.8333 39.8333,25 39,26.5C 38.2797,24.8876 38.4464,23.3876 39.5,22C 38.8333,21.3333 38.1667,21.3333 37.5,22C 36.3333,23.8333 35.1667,25.6667 34,27.5C 33.2825,26.5494 32.4491,26.3828 31.5,27C 35.1077,29.6179 35.1077,30.4512 31.5,29.5C 31.1667,30.1667 30.8333,30.8333 30.5,31.5C 29.1667,31.1667 27.8333,30.8333 26.5,30.5C 25.8076,31.0253 25.3076,31.6919 25,32.5C 23.6658,31.1221 23.4991,29.7887 24.5,28.5C 25.3909,27.7387 26.0576,26.7387 26.5,25.5C 25.0198,22.9527 25.6865,21.786 28.5,22C 27.2888,22.8928 27.2888,23.7261 28.5,24.5C 30.003,23.4099 30.3363,22.2433 29.5,21C 30.91,20.6322 31.91,19.7989 32.5,18.5C 30.4783,19.1152 28.1449,19.1152 25.5,18.5C 24.4173,17.635 24.2506,16.635 25,15.5C 26.159,16.566 26.9924,16.2327 27.5,14.5C 32.4777,13.2887 37.4777,13.4553 42.5,15C 45.6844,15.7542 48.3511,17.2542 50.5,19.5 Z"/></g>
<g><path style="opacity:1" fill="#d8f7f4" d="M 81.5,16.5 C 83.3594,17.5942 85.3594,18.4275 87.5,19C 86.8742,19.7504 86.3742,20.5838 86,21.5C 84.4216,21.4116 82.9216,21.4116 81.5,21.5C 83.1311,23.2974 85.1311,24.4641 87.5,25C 87.5,26.6667 87.5,28.3333 87.5,30C 88.4835,30.5908 89.1501,30.2575 89.5,29C 88.057,26.9223 88.7237,26.0889 91.5,26.5C 90.9639,28.9667 90.4639,31.3 90,33.5C 89.3333,30.8333 88.6667,30.8333 88,33.5C 85.9098,32.2092 84.5764,32.8758 84,35.5C 83.4304,32.1562 82.2638,31.8228 80.5,34.5C 79.065,32.5989 77.3983,32.2655 75.5,33.5C 74.1585,31.9951 72.4918,31.3285 70.5,31.5C 68.7367,30.0462 67.4033,30.3796 66.5,32.5C 64.7274,31.6857 64.2274,30.3524 65,28.5C 66.1169,28.6651 67.2836,28.9984 68.5,29.5C 69.7112,28.7261 69.7112,27.8928 68.5,27C 69.0253,26.3076 69.6919,25.8076 70.5,25.5C 72.1017,26.55 72.935,25.8833 73,23.5C 73.8505,26.6124 75.0172,26.9458 76.5,24.5C 75.3595,22.9222 74.8595,21.2555 75,19.5C 75.5613,18.9781 76.228,18.6448 77,18.5C 79.2579,20.8527 80.7579,20.186 81.5,16.5 Z"/></g>
<g><path style="opacity:1" fill="#d8f8f3" d="M 50.5,19.5 C 51.4916,19.3284 52.1583,19.6618 52.5,20.5C 51.475,20.8966 51.3083,21.5632 52,22.5C 53.1313,21.3961 53.9646,21.7295 54.5,23.5C 53.6034,23.6691 52.6034,24.0024 51.5,24.5C 52.6405,25.4255 52.6405,26.2588 51.5,27C 52.4162,27.3742 53.2496,27.8742 54,28.5C 55.0665,26.7174 56.5665,26.2174 58.5,27C 57.5,27.3333 56.5,27.6667 55.5,28C 55.8333,28.3333 56.1667,28.6667 56.5,29C 55.6919,29.3076 55.0253,29.8076 54.5,30.5C 55.5,31.3333 56.5,32.1667 57.5,33C 56.8333,33.3333 56.1667,33.6667 55.5,34C 56.7101,35.0391 57.7101,36.2058 58.5,37.5C 56.3717,39.943 54.0384,40.443 51.5,39C 52.1667,38.6667 52.8333,38.3333 53.5,38C 52.1667,37.3333 52.1667,36.6667 53.5,36C 51.9391,35.6824 50.7724,34.8491 50,33.5C 49.342,35.108 49.842,36.2747 51.5,37C 50.552,37.4828 49.552,37.6495 48.5,37.5C 48.5,36.1667 48.5,34.8333 48.5,33.5C 47.448,33.3505 46.448,33.5172 45.5,34C 46.0606,35.5655 45.3939,36.8989 43.5,38C 45.9316,39.0875 45.5983,39.5875 42.5,39.5C 42.6138,36.784 41.6138,34.784 39.5,33.5C 40.8062,32.5326 41.4729,31.1993 41.5,29.5C 42.8734,29.6567 44.2068,29.49 45.5,29C 41.551,28.1932 41.551,27.6932 45.5,27.5C 46.1174,27.6107 46.6174,27.944 47,28.5C 47.3036,26.5595 48.1369,24.8928 49.5,23.5C 48.4783,22.646 47.6449,21.646 47,20.5C 45.9125,22.9316 45.4125,22.5983 45.5,19.5C 47.1667,19.5 48.8333,19.5 50.5,19.5 Z"/></g>
<g><path style="opacity:1" fill="#d7f7f2" d="M 15.5,18.5 C 16.5862,18.62 17.2528,19.2867 17.5,20.5C 17.263,23.0635 16.763,23.0635 16,20.5C 15.6827,22.3008 15.016,22.6341 14,21.5C 13.2276,22.8491 12.0609,23.6824 10.5,24C 11.1667,24.6667 11.8333,25.3333 12.5,26C 11.3621,27.7343 10.8621,29.5676 11,31.5C 12.2289,29.0532 13.7289,28.8865 15.5,31C 14.6919,31.3076 14.0253,31.8076 13.5,32.5C 14.2624,32.9106 15.2624,33.0773 16.5,33C 15.8333,33.6667 15.1667,34.3333 14.5,35C 16.249,35.7848 17.9157,36.6182 19.5,37.5C 18.9094,38.1515 18.2427,38.8182 17.5,39.5C 18.6293,41.5294 18.1293,41.8627 16,40.5C 15.2828,41.0442 14.7828,41.7109 14.5,42.5C 13.8826,42.3893 13.3826,42.056 13,41.5C 13.9924,38.4302 13.6591,35.4302 12,32.5C 10.0249,33.478 8.35824,34.8113 7,36.5C 5.84841,34.4883 4.68175,34.3217 3.5,36C 3.83333,36.3333 4.16667,36.6667 4.5,37C 3.5,37.3333 2.5,37.6667 1.5,38C 3.11238,38.7203 4.61238,38.5536 6,37.5C 7.17109,38.8932 8.67109,39.7265 10.5,40C 8.19185,41.5883 7.52518,43.5883 8.5,46C 6.79913,46.3446 5.46579,45.6779 4.5,44C 5.45805,42.8525 5.12472,41.8525 3.5,41C 4.54896,40.5078 5.54896,40.6744 6.5,41.5C 7.69559,41.1543 7.69559,40.6543 6.5,40C 4.83333,39.3333 3.16667,39.3333 1.5,40C 2.53682,41.8508 1.87015,43.0175 -0.5,43.5C -0.5,41.8333 -0.5,40.1667 -0.5,38.5C 1.58235,31.1883 5.58235,25.0216 11.5,20C 12.745,19.2086 14.0783,18.7086 15.5,18.5 Z"/></g>
<g><path style="opacity:1" fill="#d7f8f1" d="M 113.5,27.5 C 122.993,26.4149 131.993,27.9149 140.5,32C 141.252,32.6708 141.586,33.5041 141.5,34.5C 139.544,32.1027 137.71,32.1027 136,34.5C 133.778,32.7219 131.612,32.5553 129.5,34C 133.002,34.6561 133.002,35.9895 129.5,38C 132.355,40.3361 132.022,42.1694 128.5,43.5C 127.117,40.9244 126.283,41.2577 126,44.5C 125.333,45.8333 124.667,45.8333 124,44.5C 123.51,45.7932 123.343,47.1266 123.5,48.5C 123.5,48.8333 123.5,49.1667 123.5,49.5C 120.432,46.6001 117.765,46.9335 115.5,50.5C 114.692,50.1924 114.025,49.6924 113.5,49C 114.77,48.1004 115.77,46.9337 116.5,45.5C 117.803,46.7178 118.803,46.3845 119.5,44.5C 120.086,44.7093 120.586,45.0426 121,45.5C 121.903,44.2986 123.069,43.4652 124.5,43C 123.216,42.3162 122.049,42.4829 121,43.5C 120.283,42.9558 119.783,42.2891 119.5,41.5C 120.182,38.3246 122.182,36.8246 125.5,37C 123.559,36.2571 121.726,36.4238 120,37.5C 120.177,34.2731 118.51,31.9398 115,30.5C 114.667,30.8333 114.333,31.1667 114,31.5C 113.51,30.2068 113.343,28.8734 113.5,27.5 Z"/></g>
<g><path style="opacity:1" fill="#d9f8f5" d="M 57.5,11.5 C 57.9175,12.2216 58.5842,12.7216 59.5,13C 58.1667,14.3333 58.1667,15.6667 59.5,17C 58.5509,17.6172 57.7175,17.4506 57,16.5C 55.1928,18.7693 55.6928,20.6026 58.5,22C 57.1667,22.6667 56.1667,23.6667 55.5,25C 58.0638,25.4502 59.5638,24.2836 60,21.5C 60.4652,22.9308 61.2986,24.0975 62.5,25C 61.5294,26.2036 60.5294,26.7036 59.5,26.5C 59.8645,28.7326 60.8645,30.566 62.5,32C 61.376,32.2492 60.376,32.7492 59.5,33.5C 59.6667,33.8333 59.8333,34.1667 60,34.5C 62,34.5 64,34.5 66,34.5C 66.4643,33.9056 66.631,33.2389 66.5,32.5C 67.4033,30.3796 68.7367,30.0462 70.5,31.5C 72.4741,33.428 73.9741,35.7613 75,38.5C 76.425,37.7877 77.925,37.621 79.5,38C 77.2927,35.0165 77.7927,34.8498 81,37.5C 80.9449,39.1083 80.1116,40.4416 78.5,41.5C 77.8333,40.8333 77.1667,40.1667 76.5,39.5C 75.6184,40.7598 74.6184,41.9264 73.5,43C 75.0127,45.0226 76.3461,44.8559 77.5,42.5C 80.6143,46.3903 79.9476,47.8903 75.5,47C 75.9231,48.5089 77.0898,50.0089 79,51.5C 79.6667,50.1667 80.6667,49.1667 82,48.5C 82.5,50.3333 83.6667,51.5 85.5,52C 84.5842,52.2784 83.9175,52.7784 83.5,53.5C 76.8333,53.5 70.1667,53.5 63.5,53.5C 62.9094,52.8485 62.2427,52.1818 61.5,51.5C 62.5,50.6667 63.5,49.8333 64.5,49C 63.0439,48.5774 62.5439,47.7441 63,46.5C 64.5185,46.0574 65.6852,46.7241 66.5,48.5C 67.4147,47.6721 68.0814,46.6721 68.5,45.5C 66.7367,45.3062 64.9033,45.3062 63,45.5C 62.0053,44.9341 61.172,44.2674 60.5,43.5C 60.2606,41.5328 60.5939,39.6995 61.5,38C 60.552,37.5172 59.552,37.3505 58.5,37.5C 57.7101,36.2058 56.7101,35.0391 55.5,34C 56.1667,33.6667 56.8333,33.3333 57.5,33C 56.5,32.1667 55.5,31.3333 54.5,30.5C 55.0253,29.8076 55.6919,29.3076 56.5,29C 56.1667,28.6667 55.8333,28.3333 55.5,28C 56.5,27.6667 57.5,27.3333 58.5,27C 56.5665,26.2174 55.0665,26.7174 54,28.5C 53.2496,27.8742 52.4162,27.3742 51.5,27C 52.6405,26.2588 52.6405,25.4255 51.5,24.5C 52.6034,24.0024 53.6034,23.6691 54.5,23.5C 53.9646,21.7295 53.1313,21.3961 52,22.5C 51.3083,21.5632 51.475,20.8966 52.5,20.5C 53.3724,17.0912 55.039,14.0912 57.5,11.5 Z"/></g>
<g><path style="opacity:1" fill="#d8f8f3" d="M 101.5,12.5 C 103.26,15.6887 104.76,19.0221 106,22.5C 107.913,25.2803 110.413,26.947 113.5,27.5C 113.343,28.8734 113.51,30.2068 114,31.5C 114.333,31.1667 114.667,30.8333 115,30.5C 118.51,31.9398 120.177,34.2731 120,37.5C 121.726,36.4238 123.559,36.2571 125.5,37C 122.182,36.8246 120.182,38.3246 119.5,41.5C 118.883,41.3893 118.383,41.056 118,40.5C 117.751,41.624 117.251,42.624 116.5,43.5C 115.719,42.2634 114.719,41.2634 113.5,40.5C 112.396,41.6313 112.729,42.4646 114.5,43C 113.056,43.7805 111.723,43.6139 110.5,42.5C 110.579,40.0709 110.245,37.5709 109.5,35C 110.833,34.3333 111.833,33.3333 112.5,32C 111.167,31.3333 111.167,30.6667 112.5,30C 111.448,28.8808 110.281,28.3808 109,28.5C 108.283,29.0442 107.783,29.7109 107.5,30.5C 105.435,31.8256 104.102,31.159 103.5,28.5C 101.195,27.769 99.3618,26.4357 98,24.5C 96.984,25.6341 96.3173,25.3008 96,23.5C 94.3203,24.4699 92.8203,25.4699 91.5,26.5C 90.2802,23.5371 90.9468,20.8705 93.5,18.5C 93.1543,17.3044 92.6543,17.3044 92,18.5C 91.0409,13.7893 92.7075,12.4559 97,14.5C 98.7866,14.2414 100.287,13.5747 101.5,12.5 Z"/></g>
<g><path style="opacity:1" fill="#d8f8f2" d="M 141.5,34.5 C 143.206,36.612 144.539,38.9453 145.5,41.5C 145.5,43.5 145.5,45.5 145.5,47.5C 145.167,47.5 144.833,47.5 144.5,47.5C 145.109,43.9947 143.942,41.328 141,39.5C 140.798,41.2556 140.298,42.9223 139.5,44.5C 137.634,43.4372 137.134,44.1039 138,46.5C 139.205,47.0712 140.372,47.7379 141.5,48.5C 139.972,49.8613 138.305,51.028 136.5,52C 138.342,51.932 140.009,52.0986 141.5,52.5C 141.5,52.8333 141.5,53.1667 141.5,53.5C 137.833,53.5 134.167,53.5 130.5,53.5C 131.091,52.8485 131.757,52.1818 132.5,51.5C 131.42,49.0038 130.086,46.6705 128.5,44.5C 127.416,45.6651 126.583,46.9984 126,48.5C 125.667,47.8333 125.333,47.1667 125,46.5C 124.722,47.4158 124.222,48.0825 123.5,48.5C 123.343,47.1266 123.51,45.7932 124,44.5C 124.667,45.8333 125.333,45.8333 126,44.5C 126.283,41.2577 127.117,40.9244 128.5,43.5C 132.022,42.1694 132.355,40.3361 129.5,38C 133.002,35.9895 133.002,34.6561 129.5,34C 131.612,32.5553 133.778,32.7219 136,34.5C 137.71,32.1027 139.544,32.1027 141.5,34.5 Z"/></g>
<g><path style="opacity:1" fill="#d8f8f4" d="M 39.5,33.5 C 41.6138,34.784 42.6138,36.784 42.5,39.5C 45.5983,39.5875 45.9316,39.0875 43.5,38C 45.3939,36.8989 46.0606,35.5655 45.5,34C 46.448,33.5172 47.448,33.3505 48.5,33.5C 48.5,34.8333 48.5,36.1667 48.5,37.5C 49.552,37.6495 50.552,37.4828 51.5,37C 49.842,36.2747 49.342,35.108 50,33.5C 50.7724,34.8491 51.9391,35.6824 53.5,36C 52.1667,36.6667 52.1667,37.3333 53.5,38C 52.8333,38.3333 52.1667,38.6667 51.5,39C 54.0384,40.443 56.3717,39.943 58.5,37.5C 59.552,37.3505 60.552,37.5172 61.5,38C 60.5939,39.6995 60.2606,41.5328 60.5,43.5C 60.9294,46.5227 60.9294,49.8561 60.5,53.5C 51.1667,53.5 41.8333,53.5 32.5,53.5C 32.4142,52.5041 32.7476,51.6708 33.5,51C 30.972,49.9826 30.972,48.8159 33.5,47.5C 32.4179,47.2514 31.0846,47.0848 29.5,47C 32.55,42.3481 31.7167,41.5148 27,44.5C 26.5172,43.552 26.3505,42.552 26.5,41.5C 24.3049,42.6082 22.3049,42.4415 20.5,41C 21.8333,40.3333 21.8333,39.6667 20.5,39C 21.8779,37.6658 23.2113,37.4991 24.5,38.5C 26.645,41.6007 29.3116,42.1007 32.5,40C 32.1667,39.6667 31.8333,39.3333 31.5,39C 32.8333,38.6667 34.1667,38.3333 35.5,38C 35.1667,37.6667 34.8333,37.3333 34.5,37C 36.3231,36.0027 37.9897,34.8361 39.5,33.5 Z"/></g>
<g><path style="opacity:1" fill="#d8f8f3" d="M 107.5,30.5 C 109.761,31.9763 109.428,33.4763 106.5,35C 107.337,36.0113 107.67,37.1779 107.5,38.5C 106.178,38.67 105.011,38.3366 104,37.5C 101.91,40.1473 99.4102,40.8139 96.5,39.5C 94.1861,38.8213 93.8528,37.488 95.5,35.5C 94.6721,34.5853 93.6721,33.9186 92.5,33.5C 91.0266,36.2796 89.6933,39.1129 88.5,42C 89.5,42.3333 90.5,42.6667 91.5,43C 89.7148,44.1628 87.7148,44.8295 85.5,45C 86.2567,46.5122 87.2567,47.8455 88.5,49C 87.4178,50.3297 86.7512,51.8297 86.5,53.5C 85.5,53.5 84.5,53.5 83.5,53.5C 83.9175,52.7784 84.5842,52.2784 85.5,52C 83.6667,51.5 82.5,50.3333 82,48.5C 80.6667,49.1667 79.6667,50.1667 79,51.5C 77.0898,50.0089 75.9231,48.5089 75.5,47C 79.9476,47.8903 80.6143,46.3903 77.5,42.5C 76.3461,44.8559 75.0127,45.0226 73.5,43C 74.6184,41.9264 75.6184,40.7598 76.5,39.5C 77.1667,40.1667 77.8333,40.8333 78.5,41.5C 80.1116,40.4416 80.9449,39.1083 81,37.5C 77.7927,34.8498 77.2927,35.0165 79.5,38C 77.925,37.621 76.425,37.7877 75,38.5C 73.9741,35.7613 72.4741,33.428 70.5,31.5C 72.4918,31.3285 74.1585,31.9951 75.5,33.5C 77.3983,32.2655 79.065,32.5989 80.5,34.5C 82.2638,31.8228 83.4304,32.1562 84,35.5C 84.5764,32.8758 85.9098,32.2092 88,33.5C 88.6667,30.8333 89.3333,30.8333 90,33.5C 90.4639,31.3 90.9639,28.9667 91.5,26.5C 92.8203,25.4699 94.3203,24.4699 96,23.5C 96.3173,25.3008 96.984,25.6341 98,24.5C 99.3618,26.4357 101.195,27.769 103.5,28.5C 104.102,31.159 105.435,31.8256 107.5,30.5 Z"/></g>
<g><path style="opacity:1" fill="#d9f8f5" d="M 96.5,39.5 C 96.3893,40.1174 96.056,40.6174 95.5,41C 100.158,41.638 101.158,43.638 98.5,47C 99.1905,48.0674 99.6905,49.2341 100,50.5C 101.903,50.3062 103.737,50.3062 105.5,50.5C 106.5,49.8333 107.5,49.1667 108.5,48.5C 108.348,50.1727 109.015,51.8393 110.5,53.5C 102.5,53.5 94.5,53.5 86.5,53.5C 86.7512,51.8297 87.4178,50.3297 88.5,49C 87.2567,47.8455 86.2567,46.5122 85.5,45C 87.7148,44.8295 89.7148,44.1628 91.5,43C 90.5,42.6667 89.5,42.3333 88.5,42C 89.6933,39.1129 91.0266,36.2796 92.5,33.5C 93.6721,33.9186 94.6721,34.5853 95.5,35.5C 93.8528,37.488 94.1861,38.8213 96.5,39.5 Z"/></g>
<g><path style="opacity:1" fill="#d8f8f4" d="M 21.5,35.5 C 22.5,35.5 23.5,35.5 24.5,35.5C 24.5,36.5 24.5,37.5 24.5,38.5C 23.2113,37.4991 21.8779,37.6658 20.5,39C 21.8333,39.6667 21.8333,40.3333 20.5,41C 22.3049,42.4415 24.3049,42.6082 26.5,41.5C 26.3505,42.552 26.5172,43.552 27,44.5C 31.7167,41.5148 32.55,42.3481 29.5,47C 31.0846,47.0848 32.4179,47.2514 33.5,47.5C 30.972,48.8159 30.972,49.9826 33.5,51C 32.7476,51.6708 32.4142,52.5041 32.5,53.5C 25.5,53.5 18.5,53.5 11.5,53.5C 11.3893,52.8826 11.056,52.3826 10.5,52C 13.8044,50.936 16.8044,50.1027 19.5,49.5C 18.6527,47.939 18.9861,46.439 20.5,45C 19.2559,44.5439 18.4226,45.0439 18,46.5C 16.984,45.3659 16.3173,45.6992 16,47.5C 14.049,45.8629 14.2157,44.3629 16.5,43C 15.9056,42.5357 15.2389,42.369 14.5,42.5C 14.7828,41.7109 15.2828,41.0442 16,40.5C 18.1293,41.8627 18.6293,41.5294 17.5,39.5C 18.2427,38.8182 18.9094,38.1515 19.5,37.5C 20.5,37.1667 21.1667,36.5 21.5,35.5 Z"/></g>
<g><path style="opacity:1" fill="#d9f9f3" d="M 119.5,41.5 C 119.783,42.2891 120.283,42.9558 121,43.5C 122.049,42.4829 123.216,42.3162 124.5,43C 123.069,43.4652 121.903,44.2986 121,45.5C 120.586,45.0426 120.086,44.7093 119.5,44.5C 118.803,46.3845 117.803,46.7178 116.5,45.5C 115.77,46.9337 114.77,48.1004 113.5,49C 114.025,49.6924 114.692,50.1924 115.5,50.5C 117.765,46.9335 120.432,46.6001 123.5,49.5C 125.575,49.3016 127.575,49.1349 129.5,49C 130.345,50.5581 129.679,51.5581 127.5,52C 128.056,52.3826 128.389,52.8826 128.5,53.5C 122.5,53.5 116.5,53.5 110.5,53.5C 109.015,51.8393 108.348,50.1727 108.5,48.5C 107.5,49.1667 106.5,49.8333 105.5,50.5C 103.737,50.3062 101.903,50.3062 100,50.5C 99.6905,49.2341 99.1905,48.0674 98.5,47C 101.158,43.638 100.158,41.638 95.5,41C 96.056,40.6174 96.3893,40.1174 96.5,39.5C 99.4102,40.8139 101.91,40.1473 104,37.5C 105.011,38.3366 106.178,38.67 107.5,38.5C 107.67,37.1779 107.337,36.0113 106.5,35C 109.428,33.4763 109.761,31.9763 107.5,30.5C 107.783,29.7109 108.283,29.0442 109,28.5C 110.281,28.3808 111.448,28.8808 112.5,30C 111.167,30.6667 111.167,31.3333 112.5,32C 111.833,33.3333 110.833,34.3333 109.5,35C 110.245,37.5709 110.579,40.0709 110.5,42.5C 111.723,43.6139 113.056,43.7805 114.5,43C 112.729,42.4646 112.396,41.6313 113.5,40.5C 114.719,41.2634 115.719,42.2634 116.5,43.5C 117.251,42.624 117.751,41.624 118,40.5C 118.383,41.056 118.883,41.3893 119.5,41.5 Z"/></g>
<g><path style="opacity:1" fill="#daf8f2" d="M 144.5,47.5 C 145.084,50.285 144.084,51.9517 141.5,52.5C 140.009,52.0986 138.342,51.932 136.5,52C 138.305,51.028 139.972,49.8613 141.5,48.5C 140.372,47.7379 139.205,47.0712 138,46.5C 137.134,44.1039 137.634,43.4372 139.5,44.5C 140.298,42.9223 140.798,41.2556 141,39.5C 143.942,41.328 145.109,43.9947 144.5,47.5 Z"/></g>
<g><path style="opacity:1" fill="#daf8f4" d="M 130.5,53.5 C 129.833,53.5 129.167,53.5 128.5,53.5C 128.389,52.8826 128.056,52.3826 127.5,52C 129.679,51.5581 130.345,50.5581 129.5,49C 127.575,49.1349 125.575,49.3016 123.5,49.5C 123.5,49.1667 123.5,48.8333 123.5,48.5C 124.222,48.0825 124.722,47.4158 125,46.5C 125.333,47.1667 125.667,47.8333 126,48.5C 126.583,46.9984 127.416,45.6651 128.5,44.5C 130.086,46.6705 131.42,49.0038 132.5,51.5C 131.757,52.1818 131.091,52.8485 130.5,53.5 Z"/></g>
<g><path style="opacity:1" fill="#d8f8f3" d="M 14.5,42.5 C 15.2389,42.369 15.9056,42.5357 16.5,43C 14.2157,44.3629 14.049,45.8629 16,47.5C 16.3173,45.6992 16.984,45.3659 18,46.5C 18.4226,45.0439 19.2559,44.5439 20.5,45C 18.9861,46.439 18.6527,47.939 19.5,49.5C 16.8044,50.1027 13.8044,50.936 10.5,52C 11.056,52.3826 11.3893,52.8826 11.5,53.5C 9.5,53.5 7.5,53.5 5.5,53.5C 3.09051,52.2993 1.09051,50.6326 -0.5,48.5C -0.5,46.8333 -0.5,45.1667 -0.5,43.5C 1.87015,43.0175 2.53682,41.8508 1.5,40C 3.16667,39.3333 4.83333,39.3333 6.5,40C 7.69559,40.6543 7.69559,41.1543 6.5,41.5C 5.54896,40.6744 4.54896,40.5078 3.5,41C 5.12472,41.8525 5.45805,42.8525 4.5,44C 5.46579,45.6779 6.79913,46.3446 8.5,46C 7.52518,43.5883 8.19185,41.5883 10.5,40C 8.67109,39.7265 7.17109,38.8932 6,37.5C 4.61238,38.5536 3.11238,38.7203 1.5,38C 2.5,37.6667 3.5,37.3333 4.5,37C 4.16667,36.6667 3.83333,36.3333 3.5,36C 4.68175,34.3217 5.84841,34.4883 7,36.5C 8.35824,34.8113 10.0249,33.478 12,32.5C 13.6591,35.4302 13.9924,38.4302 13,41.5C 13.3826,42.056 13.8826,42.3893 14.5,42.5 Z"/></g>
<g><path style="opacity:1" fill="#d9faf3" d="M 60.5,43.5 C 61.172,44.2674 62.0053,44.9341 63,45.5C 64.9033,45.3062 66.7367,45.3062 68.5,45.5C 68.0814,46.6721 67.4147,47.6721 66.5,48.5C 65.6852,46.7241 64.5185,46.0574 63,46.5C 62.5439,47.7441 63.0439,48.5774 64.5,49C 63.5,49.8333 62.5,50.6667 61.5,51.5C 62.2427,52.1818 62.9094,52.8485 63.5,53.5C 62.5,53.5 61.5,53.5 60.5,53.5C 60.9294,49.8561 60.9294,46.5227 60.5,43.5 Z"/></g>
</svg>
